<?xml version="1.0" encoding="utf-8"?>
<!-- Generator: Adobe Illustrator 23.0.2, SVG Export Plug-In . SVG Version: 6.00 Build 0)  -->
<svg version="1.1" xmlns="http://www.w3.org/2000/svg" xmlns:xlink="http://www.w3.org/1999/xlink" x="0px" y="0px"
	 viewBox="0 0 285.96 285.96" style="enable-background:new 0 0 285.96 285.96;" xml:space="preserve" fill="#ff4261">
<style type="text/css">
	.st0{display:none;}
	.st1{display:inline;fill:#BCBCBC;}
	.st2{display:inline;}
</style>
<g id="レイヤー_4" class="st0">
	<circle class="st1" cx="142.98" cy="142.98" r="142.98"/>
</g>
<g id="レイヤー_3_xA0_画像_1_" class="st0">
	<path class="st2" d="M250.18,125.25c-0.6-2.48-0.25-5.06-0.73-7.54c-5.46-28.19-21.98-47.7-47.41-60.13
		c-18.37-8.98-38.01-10.49-58.03-9.66c-6.81,0.28-13.54,1.07-20.22,2.49c-16.78,3.57-32.61,9.66-47.53,18.07
		c-16.25,9.16-31.17,20.08-44.13,33.58c-1.98,2.06-2.06,2.57-0.49,5.1c3.63,5.86,7.35,11.66,11.03,17.49
		c0.74,1.18,1.57,2.3,3.21,2.08c1.61-0.22,2.57-1.28,3.15-2.68c1-2.38,0.92-4.87,0.26-7.27c-0.52-1.9-0.21-3.44,0.8-5.06
		c4.92-7.9,11.35-14.4,18.52-20.22c0.81-0.66,1.6-2.01,2.69-1.5c0.94,0.44,0.44,1.87,0.44,2.85c0.02,46.47,0.02,92.93,0.02,139.4
		c0,3.5-0.01,3.51-3.26,4.76c-2.25,0.86-4.43,1.84-5.89,3.86c-1.65,2.28-0.84,4.45,1.84,5.15c13.03,0,26.06,0,39.1,0
		c2.75-0.75,3.47-3.05,1.59-5.38c-1.6-1.98-3.82-3.1-6.19-3.87c-1.61-0.53-2.3-1.49-2.29-3.2c0.03-9.61,0.04-19.22-0.01-28.84
		c-0.01-2.07,0.87-2.28,2.53-1.66c3.04,1.11,6.15,2,9.25,2.9c12.7,3.69,25.67,6.03,38.87,6.74c8.49,0.46,16.98-0.02,25.42-1.42
		c23.74-3.94,44.49-13.5,60.44-32.06c7.5-8.73,12.42-18.81,15.37-29.93c1.07-4.06,1.03-8.21,1.65-12.3c0-0.68,0-1.36,0-2.04
		c-0.42-2.21-0.42-4.43,0-6.64C250.18,127.3,250.18,126.28,250.18,125.25z M215.76,157.86c-8.26,19.64-23.27,31.84-43.55,37.82
		c-10.26,3.02-20.78,3.14-31.3,2.55c-12.64-0.7-25.08-2.68-37.04-7.05c-2.69-0.98-6.2-1.4-7.62-3.57c-1.22-1.86-0.37-5.1-0.37-7.73
		c-0.01-15.91-0.01-31.83-0.01-47.74c0-17.78,0.04-35.57-0.05-53.35c-0.01-2.08,0.7-3.15,2.4-4.21
		c10.68-6.58,22.37-10.33,34.58-12.66c8.05-1.53,16.19-2.04,24.34-1.46c30.58,2.15,54.2,21.27,61.37,51.21
		C222.25,127.29,222.05,142.89,215.76,157.86z"/>
</g>
<g id="べた塗り_1_xA0_画像_1_" class="st0">
	<path class="st2" d="M102.19,230.72c-0.51,0-1.02,0-1.53,0c-1.02-0.42-2.04-0.42-3.06,0c-0.68,0-1.36,0-2.04,0
		c-0.51-0.38-1.02-0.38-1.53,0c-1.02,0-2.04,0-3.06,0c-1.62-0.85-3.38-0.37-5.08-0.54c-15.76-2.34-30.51-7.56-44.29-15.53
		c-1.11-0.64-3.01-1.18-2.52-2.7c0.42-1.28,2.24-0.77,3.48-0.63c8.14,0.96,16.12-0.21,24.06-1.82c11.34-2.3,21.62-7.1,31.14-13.59
		c0.35-0.24,0.72-0.46,0.99-1.03c-0.6-0.63-1.48-0.56-2.25-0.67c-15.47-2.32-26.56-10.66-33.69-24.46c-0.2-0.38-0.38-0.76-0.55-1.15
		c-1.89-4.26-1.56-4.71,2.96-4.47c4.32,0.22,8.65,0.29,12.69-0.59C61.25,159.36,48,144.37,45.96,127.2
		c-0.15-1.27-0.16-2.55-0.06-3.82c0.17-2.07,0.67-2.45,2.6-1.64c4.26,1.79,8.61,3.21,13.2,3.83c0.4,0.05,0.81,0.29,1.36-0.13
		c-4.92-3.81-8.92-8.4-11.8-13.85c-6.95-13.18-7.09-26.55-0.68-39.97c1.21-2.53,2.22-2.65,4.09-0.42
		c5.46,6.48,11.68,12.13,18.37,17.27c17.4,13.37,37.05,21.32,58.79,24.17c2.03,0.27,4.06,0.39,6.09,0.58
		c1.7,0.15,2.07-0.43,1.84-2.01c-0.87-6.04-0.82-12.05,0.96-17.94c5.12-17.01,16.38-27.87,33.71-31.2
		c14.11-2.71,27.24,0.56,38.07,10.71c1.25,1.17,2.53,1.49,4.18,1.14c7.31-1.52,14.16-4.27,20.79-7.62c0.3-0.15,0.58-0.36,0.88-0.51
		c0.82-0.42,1.71-1.21,2.57-0.52c1,0.81,0.31,1.92-0.06,2.81c-3.32,7.87-8.38,14.36-15.64,19.39c3.23-0.59,6.23-1.17,9.19-1.97
		c3.04-0.83,6.05-1.73,8.97-2.95c1.2-0.5,2.43-1.41,3.83-0.44c0,0.17,0,0.34,0,0.51c-4.87,7.59-11.04,13.99-18.15,19.48
		c-1.86,1.44-2.7,2.94-2.68,5.32c0.35,32.14-10.71,60.12-31.56,84.23c-10.55,12.21-23.38,21.65-38.14,28.46
		c-10.91,5.04-22.3,8.2-34.12,10.05c-1.69,0.16-3.44-0.31-5.06,0.54c-0.68,0-1.36,0-2.04,0c-0.48-0.45-1.07-0.19-1.61-0.26
		c-0.45,0-0.91,0-1.36,0c-0.54,0.07-1.14-0.19-1.62,0.26c-1.02,0-2.04,0-3.06,0c-0.82-0.53-1.74-0.14-2.61-0.26
		C104.2,230.58,103.16,230.16,102.19,230.72z"/>
</g>
<g id="レイヤー_3">
	<path d="M146.41,93.27c6.65-16.03,12.78-30.89,19.02-45.71c1.02-2.41,1.34-6.02,5.37-5.36c4.57,0.75,9.83-2.35,13.45,3.61
		c11.52,18.98,23.32,37.79,35.27,56.51c2.65,4.16,1.83,8.41,1.73,12.63c-0.1,4.26,0.66,7.78,4.49,10.01
		c12.32,7.18,16.47,17.82,14.3,31.68c-0.8,5.11-0.36,10.46-0.05,15.68c0.23,3.86-1.29,4.63-4.85,4.69
		c-13.77,0.24-13.77,0.37-13.77,13.96c0,16.79-0.16,33.59,0.1,50.38c0.08,4.72-0.96,6.47-6.07,6.38
		c-12.72-0.21-12.87,0.06-12.75-12.65c0.37-40.51-40.66-65.21-72.43-57.7c-17.97,4.25-28.32,18.17-28.4,36.59
		c-0.04,9.6-0.14,19.19,0.05,28.79c0.07,3.64-1.05,5.11-4.81,4.89c-6.51-0.36-14.7,1.93-19.07-1.21
		c-4.32-3.11-1.31-11.78-1.39-17.99c-0.21-17.23-0.36-34.46,0.08-51.68c0.16-6.35-1.12-9.28-8.06-8.23
		c-3.11,0.47-6.51,0.67-9.57-1.1c-4.94-2.85-6.37-7.25-6.34-12.67c0.1-20.94-0.08-41.87,0.13-62.81c0.05-4.49-0.53-6.49-5.85-6.35
		c-12.77,0.35-12.78,0.03-12.78-12.88c0-12.18,0-12.22,12.23-12.23c3.57,0,7.28,0.6,6.4-5.07c-0.28-1.78,1.37-1.93,2.72-1.93
		c6.32-0.01,12.65,0.02,18.97-0.02c4.63-0.03,3,3.49,3.01,5.67c0.11,21.59,0.07,43.18,0.07,64.77c0,2.08,0,4.17,0,6.25
		c0.37,0.08,0.74,0.15,1.11,0.23c6.59-15.5,13.18-30.99,19.75-46.49c4.16-9.81,8.32-19.61,12.38-29.45c1.3-3.15,2.37-5.81,6.83-5.24
		c4.18,0.53,7.94-0.55,10.31,5.15C133.32,67.19,139.81,79.52,146.41,93.27z"/>
</g>
</svg>
