<svg xmlns="http://www.w3.org/2000/svg" viewBox="0 0 50.83 39.31"><g id="レイヤー_2" data-name="レイヤー 2"><g id="c407ad18fd54a84c_画像" data-name="c407ad18fd54a84c 画像"><path d="M25.28,3.12c.8-.81,1.37-1.45,2-2,1.51-1.37,3.11-1.45,4.3-.25a3.13,3.13,0,0,1-.09,4.64C31,6,30.4,6.47,29.85,7c-1.2,1-2.45,2.07-3.6,3.18-.6.58-1,.7-1.7.12-1.5-1.33-3-2.61-4.55-3.93A8.59,8.59,0,0,1,18.74,5,2.86,2.86,0,0,1,19.13.9,2.72,2.72,0,0,1,23,.86C23.71,1.5,24.38,2.24,25.28,3.12Z"/><path d="M22.71,15c-.76-.6-1.36-1.09-2-1.56a4,4,0,0,0-4.3-.78,3.79,3.79,0,0,0-2.32,3.69,19.56,19.56,0,0,0,.51,4.76,28.24,28.24,0,0,0,3.86,8.13c.46.75.78,1.59,1.17,2.39l-.34.27c-.33-.12-.76-.14-1-.37a13.58,13.58,0,0,1-1.89-2.33C15.27,27.13,14.2,25,13.1,23a14.64,14.64,0,0,1-1.52-7.59A9.35,9.35,0,0,1,11.72,14c.82-5,4.92-5.38,7.78-3.7a14.93,14.93,0,0,1,2.82,2.21A1.79,1.79,0,0,1,22.71,15Z"/><path d="M27.7,14.44A4,4,0,0,1,28,13.06a7.7,7.7,0,0,1,6.21-3.57,4.15,4.15,0,0,1,4.15,2.62,11.14,11.14,0,0,1,.37,7.69A32.83,32.83,0,0,1,33,31a4.26,4.26,0,0,1-.88.81,2.91,2.91,0,0,1-.74.19,3.23,3.23,0,0,1,.07-1.12c.54-1.07,1.22-2.08,1.74-3.17a53.8,53.8,0,0,0,2.86-6.41,15.67,15.67,0,0,0,.56-4.75,3.9,3.9,0,0,0-2.32-3.91c-1.71-.79-3.12-.22-4.48.8-.56.42-1.13.83-1.7,1.24Z"/><path d="M40.55,18.87c-.08-.39-.16-.54-.12-.64,1.4-3.24,6.23-4.37,8.85-2.07a4.57,4.57,0,0,1,1.43,4.58A22,22,0,0,1,45.84,31.2c-1.22,1.41-2.6,2.69-4,4-.4.39-.86.92-1.62.42-.27-1,.58-1.38,1.09-1.93a30.11,30.11,0,0,0,6.15-9.36,7.7,7.7,0,0,0,.58-2.71c0-3.12-2.45-4.73-5.35-3.6Z"/><path d="M10.22,35.93a10.63,10.63,0,0,1-1.57-1C4.58,31.17,1.34,27,.2,21.35c-.75-3.67.59-5.9,4.27-6.46,2-.31,4.53,1.19,5.76,3.7a13.59,13.59,0,0,1-1.79-.49,3.89,3.89,0,0,0-4.66.55C2.34,20,2.38,21.78,3,23.5a26,26,0,0,0,4.36,7.64c.81,1,1.68,1.91,2.48,2.89a11.73,11.73,0,0,1,.89,1.39Z"/><path d="M28.92,34.5a1.49,1.49,0,0,1,2,.67,1.43,1.43,0,0,1-.59,2,1.58,1.58,0,0,1-2.27-.49A1.81,1.81,0,0,1,28.92,34.5Z"/><path d="M22.76,35.25a1.53,1.53,0,0,1-.58,2.08,1.9,1.9,0,0,1-2.41-.8,1.69,1.69,0,0,1,.81-2.19A1.77,1.77,0,0,1,22.76,35.25Z"/><path d="M14.85,37.2a1.48,1.48,0,0,1-.82,2,1.71,1.71,0,0,1-2.2-.81,1.55,1.55,0,0,1,.83-2A1.71,1.71,0,0,1,14.85,37.2Z"/><path d="M39,37.21a1.48,1.48,0,0,1-.8,2,1.67,1.67,0,0,1-2.16-.89,1.44,1.44,0,0,1,.76-1.86A1.62,1.62,0,0,1,39,37.21Z"/></g></g></svg>